<svg width="32" height="32" viewBox="0 0 32 32" fill="none" xmlns="http://www.w3.org/2000/svg">
<path d="M16.0063 8.81251C12.0313 8.81251 8.82505 12.0188 8.82505 15.9938C8.82505 19.9688 12.0313 23.175 16.0063 23.175C19.9813 23.175 23.1875 19.9688 23.1875 15.9938C23.1875 12.0188 19.9813 8.81251 16.0063 8.81251ZM16.0063 20.6625C13.4375 20.6625 11.3375 18.5688 11.3375 15.9938C11.3375 13.4188 13.4313 11.325 16.0063 11.325C18.5813 11.325 20.675 13.4188 20.675 15.9938C20.675 18.5688 18.575 20.6625 16.0063 20.6625ZM25.1563 8.51876C25.1563 9.45001 24.4063 10.1938 23.4813 10.1938C22.5501 10.1938 21.8063 9.44376 21.8063 8.51876C21.8063 7.59376 22.5563 6.84376 23.4813 6.84376C24.4063 6.84376 25.1563 7.59376 25.1563 8.51876ZM29.9125 10.2188C29.8063 7.97501 29.2938 5.98751 27.65 4.35001C26.0125 2.71251 24.025 2.20001 21.7813 2.08751C19.4688 1.95626 12.5375 1.95626 10.225 2.08751C7.98755 2.19376 6.00005 2.70626 4.3563 4.34376C2.71255 5.98126 2.2063 7.96876 2.0938 10.2125C1.96255 12.525 1.96255 19.4563 2.0938 21.7688C2.20005 24.0125 2.71255 26 4.3563 27.6375C6.00005 29.275 7.9813 29.7875 10.225 29.9C12.5375 30.0313 19.4688 30.0313 21.7813 29.9C24.025 29.7938 26.0125 29.2813 27.65 27.6375C29.2875 26 29.8001 24.0125 29.9125 21.7688C30.0438 19.4563 30.0438 12.5313 29.9125 10.2188ZM26.925 24.25C26.4375 25.475 25.4938 26.4188 24.2626 26.9125C22.4188 27.6438 18.0438 27.475 16.0063 27.475C13.9688 27.475 9.58755 27.6375 7.75005 26.9125C6.52505 26.425 5.5813 25.4813 5.08755 24.25C4.3563 22.4063 4.52505 18.0313 4.52505 15.9938C4.52505 13.9563 4.36255 9.57501 5.08755 7.73751C5.57505 6.51251 6.5188 5.56876 7.75005 5.07501C9.5938 4.34376 13.9688 4.51251 16.0063 4.51251C18.0438 4.51251 22.4251 4.35001 24.2626 5.07501C25.4876 5.56251 26.4313 6.50626 26.925 7.73751C27.6563 9.58126 27.4875 13.9563 27.4875 15.9938C27.4875 18.0313 27.6563 22.4125 26.925 24.25Z" fill="white"/>
</svg>
